<svg width="103" height="103" viewBox="0 0 103 103" fill="none" xmlns="http://www.w3.org/2000/svg">
<path d="M51.5 94.4166C45.5632 94.4166 39.9841 93.2894 34.7625 91.0348C29.541 88.7803 24.999 85.7232 21.1365 81.8635C17.274 78.0039 14.2169 73.4619 11.9652 68.2375C9.71352 63.0131 8.58624 57.4339 8.58338 51.5C8.58052 45.566 9.7078 39.9869 11.9652 34.7625C14.2226 29.5381 17.2797 24.9961 21.1365 21.1364C24.9933 17.2768 29.5353 14.2197 34.7625 11.9651C39.9898 9.71059 45.569 8.58331 51.5 8.58331C57.4311 8.58331 63.0103 9.71059 68.2375 11.9651C73.4648 14.2197 78.0068 17.2768 81.8636 21.1364C85.7204 24.9961 88.7789 29.5381 91.0392 34.7625C93.2994 39.9869 94.4253 45.566 94.4167 51.5C94.4081 57.4339 93.2809 63.0131 91.0349 68.2375C88.7889 73.4619 85.7318 78.0039 81.8636 81.8635C77.9954 85.7232 73.4533 88.7817 68.2375 91.0391C63.0217 93.2965 57.4426 94.4224 51.5 94.4166ZM51.5 85.8333C61.0848 85.8333 69.2032 82.5073 75.8552 75.8552C82.5073 69.2031 85.8334 61.0847 85.8334 51.5C85.8334 41.9153 82.5073 33.7969 75.8552 27.1448C69.2032 20.4927 61.0848 17.1666 51.5 17.1666C41.9153 17.1666 33.7969 20.4927 27.1448 27.1448C20.4928 33.7969 17.1667 41.9153 17.1667 51.5C17.1667 61.0847 20.4928 69.2031 27.1448 75.8552C33.7969 82.5073 41.9153 85.8333 51.5 85.8333Z" fill="#9852D1"/>
</svg>
