<svg width="70" height="70" viewBox="0 0 70 70" fill="none" xmlns="http://www.w3.org/2000/svg">
<path d="M63.0584 48.6501L37.4792 7.29179C37.2365 6.8472 36.8778 6.47677 36.4412 6.21996C36.0046 5.96315 35.5065 5.82957 35 5.83346C34.5038 5.82968 34.015 5.95383 33.5808 6.19395C33.1465 6.43406 32.7815 6.78203 32.5209 7.20429L6.94171 48.5626H7.00004C6.27087 49.7001 5.83337 51.0418 5.83337 52.5001C5.83337 56.8751 9.62504 64.1668 35 64.1668C45.9084 64.1668 64.1667 62.7085 64.1667 52.5001C64.1667 51.3626 63.9042 50.021 63.0584 48.6501ZM35 14.2918L52.5 42.5251C48.2125 41.5043 42.5834 40.8335 35 40.8335C29.8959 40.8335 23.2167 41.1835 17.5 42.5835L35 14.2918ZM35 58.3335C22.1084 58.3335 11.6667 55.7376 11.6667 52.5001C11.6667 49.2918 22.1084 46.6668 35 46.6668C47.8917 46.6668 58.3334 49.2918 58.3334 52.5001C58.3334 55.7376 47.8917 58.3335 35 58.3335Z" fill="#9852D1"/>
</svg>
