<svg width="129" height="129" viewBox="0 0 129 129" fill="none" xmlns="http://www.w3.org/2000/svg">
<path d="M112.875 88.6875C112.875 90.73 111.746 92.5037 110.026 93.4175L67.5638 117.282C66.7038 117.927 65.6288 118.25 64.5 118.25C63.3713 118.25 62.2963 117.927 61.4363 117.282L18.9738 93.4175C18.1117 92.9651 17.3902 92.2849 16.8879 91.4509C16.3856 90.6169 16.1217 89.6611 16.125 88.6875V40.3125C16.125 38.27 17.2538 36.4962 18.9738 35.5825L61.4363 11.7175C62.2963 11.0725 63.3713 10.75 64.5 10.75C65.6288 10.75 66.7038 11.0725 67.5638 11.7175L110.026 35.5825C111.746 36.4962 112.875 38.27 112.875 40.3125V88.6875ZM64.5 22.3063L32.465 40.3125L64.5 58.3188L96.535 40.3125L64.5 22.3063ZM26.875 85.5162L59.125 103.684V67.6175L26.875 49.5038V85.5162ZM102.125 85.5162V49.5038L69.875 67.6175V103.684L102.125 85.5162Z" fill="#9852D1"/>
</svg>
