<svg width="89" height="89" viewBox="0 0 89 89" fill="none" xmlns="http://www.w3.org/2000/svg">
<path fill-rule="evenodd" clip-rule="evenodd" d="M46.7028 86.2484L46.6583 86.2558L46.395 86.3856L46.3208 86.4005L46.2689 86.3856L46.0056 86.2521C45.9661 86.2422 45.9364 86.2496 45.9166 86.2744L45.9018 86.3115L45.8387 87.8986L45.8573 87.9728L45.8944 88.021L46.28 88.2954L46.3357 88.3102L46.3802 88.2954L46.7658 88.021L46.8103 87.9617L46.8252 87.8986L46.7621 86.3152C46.7522 86.2756 46.7324 86.2534 46.7028 86.2484ZM47.6818 85.8294L47.6299 85.8368L46.9475 86.1817L46.9104 86.2187L46.8993 86.2595L46.9661 87.8541L46.9846 87.8986L47.0143 87.9283L47.7597 88.2695C47.8066 88.2818 47.8425 88.2719 47.8672 88.2398L47.882 88.1879L47.7559 85.911C47.7436 85.864 47.7189 85.8368 47.6818 85.8294ZM45.0303 85.8368C45.014 85.8269 44.9944 85.8237 44.9758 85.8278C44.9571 85.832 44.9408 85.8431 44.9302 85.859L44.9079 85.911L44.7819 88.1879C44.7843 88.2324 44.8053 88.262 44.8449 88.2769L44.9005 88.2695L45.6459 87.9246L45.683 87.8949L45.6941 87.8541L45.7609 86.2595L45.7497 86.215L45.7127 86.178L45.0303 85.8368Z" fill="#9852D1"/>
<path fill-rule="evenodd" clip-rule="evenodd" d="M22.9732 21.1745C23.8261 21.8903 25.2723 22.7024 27.3935 23.4589C31.595 24.9608 37.6396 25.9583 44.5 25.9583C51.3605 25.9583 57.405 24.957 61.6066 23.4589C63.724 22.7024 65.174 21.8903 66.0269 21.1708C66.8094 20.507 66.8094 20.2808 66.0269 19.6208C65.174 18.9013 63.7278 18.0892 61.6066 17.3327C57.405 15.8308 51.3605 14.8333 44.5 14.8333C37.6396 14.8333 31.595 15.8345 27.3935 17.3327C25.276 18.0892 23.8261 18.9013 22.9732 19.6208C22.1907 20.2845 22.1907 20.5145 22.9732 21.1745ZM66.75 29.3551C65.8855 29.7597 65.0018 30.1223 64.1023 30.4417C58.9106 32.2958 51.976 33.3712 44.5 33.3712C37.0203 33.3712 30.0895 32.2958 24.8978 30.4417C23.9983 30.1235 23.1147 29.7621 22.25 29.3588V68.5522C22.2871 68.6412 22.4317 68.923 22.9732 69.3792C23.8261 70.0986 25.2723 70.9107 27.3935 71.6672C31.595 73.1691 37.6396 74.1666 44.5 74.1666C51.3605 74.1666 57.405 73.1654 61.6066 71.6672C63.724 70.9107 65.174 70.0986 66.0269 69.3792C66.5683 68.9193 66.7167 68.6375 66.75 68.5522V29.3551ZM74.1667 20.3958V68.6041C74.1667 71.4002 72.5721 73.5622 70.8107 75.0455C69.0344 76.5474 66.6833 77.7303 64.1023 78.6537C58.9106 80.5079 51.976 81.5833 44.5 81.5833C37.0203 81.5833 30.0895 80.5079 24.8978 78.6537C22.3168 77.7303 19.9657 76.5474 18.1857 75.0455C16.428 73.5622 14.8334 71.4002 14.8334 68.6041V20.3958C14.8334 17.5997 16.428 15.4378 18.1894 13.9544C19.9657 12.4525 22.3168 11.2696 24.8978 10.3462C30.0895 8.49204 37.024 7.41663 44.5 7.41663C51.9797 7.41663 58.9106 8.49204 64.1023 10.3462C66.6833 11.2696 69.0344 12.4525 70.8144 13.9544C72.5721 15.4378 74.1667 17.5997 74.1667 20.3958Z" fill="#9852D1"/>
</svg>
