<svg width="74" height="74" viewBox="0 0 74 74" fill="none" xmlns="http://www.w3.org/2000/svg">
<path d="M70.6295 14.1131C70.2114 13.4637 69.6367 12.9299 68.9584 12.5607C68.28 12.1914 67.5198 11.9986 66.7474 12H25.3566C24.4658 11.9999 23.5939 12.2571 22.8457 12.7407C22.0975 13.2243 21.505 13.9136 21.1392 14.7259L2.40791 56.3509C2.09079 57.055 1.95505 57.8274 2.01307 58.5975C2.0711 59.3676 2.32104 60.1109 2.7401 60.7596C3.15915 61.4083 3.73398 61.9418 4.41213 62.3113C5.09027 62.6808 5.85016 62.8746 6.62244 62.875H48.0133C48.9041 62.8751 49.776 62.6179 50.5242 62.1343C51.2723 61.6507 51.8649 60.9614 52.2307 60.1492L70.962 18.5241C71.2795 17.8197 71.4154 17.0468 71.3573 16.2763C71.2993 15.5057 71.049 14.762 70.6295 14.1131ZM48.0133 58.25H6.62244L25.3566 16.625H66.7474L48.0133 58.25Z" fill="#9852D1"/>
</svg>
