<svg width="83" height="83" viewBox="0 0 83 83" fill="none" xmlns="http://www.w3.org/2000/svg">
<path d="M41.5001 6.91663V76.0833M41.5001 6.91663C43.5198 6.91663 44.9031 9.12996 47.6698 13.5566L73.2719 54.4583C75.2431 57.6089 76.3048 59.3069 76.0454 60.8182M41.5001 6.91663C39.4839 6.91663 38.1006 9.12996 35.3305 13.5566L9.72844 54.4549C7.75719 57.6054 6.69548 59.3035 6.95485 60.8182M41.5001 76.0833C42.2022 76.0833 42.8696 75.8135 44.2011 75.281L69.8031 65.0547C73.5485 63.5572 75.4229 62.8102 75.9486 61.1952C75.9879 61.0714 76.0203 60.9456 76.0454 60.8182M41.5001 76.0833C40.7981 76.0833 40.1306 75.8135 38.7992 75.281L13.1971 65.0547C9.45177 63.5572 7.57735 62.8067 7.05169 61.1952C7.01223 61.0703 6.9799 60.9433 6.95485 60.8147M51.4256 47.2961L76.0454 60.8182M76.0454 60.8182L76.0627 60.832M6.95485 60.8147L6.93756 60.8286M6.95485 60.8147L31.5782 47.2927" stroke="#9852D1" stroke-width="5.1875" stroke-linecap="round" stroke-linejoin="round"/>
</svg>
