<svg width="89" height="89" viewBox="0 0 89 89" fill="none" xmlns="http://www.w3.org/2000/svg">
<path d="M44.0833 8C23.6875 8 7 24.6875 7 45.0833C7 65.4792 23.6875 82.1667 44.0833 82.1667C64.4792 82.1667 81.1667 65.4792 81.1667 45.0833C81.1667 24.6875 64.4792 8 44.0833 8ZM44.0833 52.5C27.6925 52.5 14.4167 49.1996 14.4167 45.0833C14.4167 41.0042 27.6925 37.6667 44.0833 37.6667C60.4742 37.6667 73.75 41.0042 73.75 45.0833C73.75 49.1996 60.4742 52.5 44.0833 52.5ZM44.0833 15.4167C56.5804 15.4167 67.2604 23.1671 71.6362 34.1438C66.0737 31.8446 57.4704 30.25 44.0833 30.25C35.925 30.25 24.5404 30.9546 16.5304 34.1438C20.9063 23.1671 31.5862 15.4167 44.0833 15.4167ZM44.0833 74.75C31.5862 74.75 20.9063 66.9996 16.5304 56.0229C22.0929 58.3221 30.6962 59.9167 44.0833 59.9167C52.2417 59.9167 63.6262 59.2121 71.6362 56.0229C67.2604 66.9996 56.5804 74.75 44.0833 74.75Z" fill="#9852D1"/>
</svg>
