<svg width="113" height="113" viewBox="0 0 113 113" fill="none" xmlns="http://www.w3.org/2000/svg">
<path d="M74.8484 18.8333H38.1516C36.6464 18.833 35.1804 19.3136 33.9676 20.2051C32.7547 21.0965 31.8584 22.3521 31.4093 23.7888L12.2817 84.9972C11.9512 86.0547 11.8741 87.1751 12.0566 88.2679C12.2392 89.3608 12.6763 90.3953 13.3327 91.2879C13.989 92.1806 14.8462 92.9063 15.8349 93.4063C16.8236 93.9064 17.9161 94.1669 19.024 94.1666H93.976C95.084 94.1669 96.1764 93.9064 97.1651 93.4063C98.1538 92.9063 99.011 92.1806 99.6673 91.2879C100.324 90.3953 100.761 89.3608 100.943 88.2679C101.126 87.1751 101.049 86.0547 100.718 84.9972L81.5907 23.7888C81.1417 22.3521 80.2453 21.0965 79.0325 20.2051C77.8196 19.3136 76.3536 18.833 74.8484 18.8333Z" stroke="#9852D1" stroke-width="9"/>
</svg>
